{"title":"Captain.America.The.Winter.Soldier.2014.TS.XviD-VAiN","uid":10011312,"size":1480697830,"categoryP":"video","categoryS":"movies","magnet":"?xt=urn:btih:1e8b82947871b21fd2d9ad69e8de41e97b3b816e&amp;dn=Captain.America.The.Winter.Soldier.2014.TS.XviD-VAiN&amp;tr=udp%3A%2F%2Ftracker.openbittorrent.com%3A80&amp;tr=udp%3A%2F%2Fopen.demonii.com%3A1337&amp;tr=udp%3A%2F%2Ftracker.coppersurfer.tk%3A6969&amp;tr=udp%3A%2F%2Fexodus.desync.com%3A6969","seeders":2,"leechers":0,"uploader":"xxxlavalxxx","files":-1,"time":1398103340,"description":" &lt;a href=&quot;http://www.imdb.com/title/tt1843866/&quot; rel=&quot;nofollow&quot; target=&quot;_NEW&quot;&gt;http://www.imdb.com/title/tt1843866/&lt;/a&gt;\n\n\nGeneral\nFormat                                   : AVI\nFormat/Info                              : Audio Video Interleave\nFile size                                : 1.37 GiB\nDuration                                 : 2h 15mn\nOverall bit rate                         : 1 453 Kbps\nWriting application                      : VirtualDubMod 1.5.10.2 (build 2540/release)\nWriting library                          : VirtualDubMod build 2540/release\n\nVideo\nID                                       : 0\nFormat                                   : MPEG-4 Visual\nFormat profile                           : Advanced Simple@L5\nFormat settings, BVOP                    : 2\nFormat settings, QPel                    : No\nFormat settings, GMC                     : No warppoints\nFormat settings, Matrix                  : Default (MPEG)\nMuxing mode                              : Packed bitstream\nCodec ID                                 : XVID\nCodec ID/Hint                            : XviD\nDuration                                 : 2h 15mn\nBit rate                                 : 1 313 Kbps\nWidth                                    : 720 pixels\nHeight                                   : 352 pixels\nDisplay aspect ratio                     : 2.045\nFrame rate                               : 29.970 fps\nColor space                              : YUV\nChroma subsampling                       : 4:2:0\nBit depth                                : 8 bits\nScan type                                : Progressive\nCompression mode                         : Lossy\nBits/(Pixel*Frame)                       : 0.173\nStream size                              : 1.24 GiB (90%)\nWriting library                          : XviD 1.2.0.dev47 (UTC 2006-11-01)\n\nAudio\nID                                       : 1\nFormat                                   : MPEG Audio\nFormat version                           : Version 1\nFormat profile                           : Layer 3\nCodec ID                                 : 55\nCodec ID/Hint                            : MP3\nDuration                                 : 2h 15mn\nBit rate mode                            : Constant\nBit rate                                 : 128 Kbps\nChannel(s)                               : 2 channels\nSampling rate                            : 44.1 KHz\nCompression mode                         : Lossy\nStream size                              : 124 MiB (9%)\nAlignment                                : Split accross interleaves\nInterleave, duration                     : 33 ms (1.00 video frame)\nWriting library                          : LAME3.98.4UUUUUUU\u0005\u0001%\n\n\n\nscreens\n &lt;a href=&quot;\nhttp://i.imgur.com/ivHLfDI.png&quot; rel=&quot;nofollow&quot; target=&quot;_NEW&quot;&gt;\nhttp://i.imgur.com/ivHLfDI.png&lt;/a&gt; &lt;a href=&quot;\nhttp://i.imgur.com/6r7Blqv.png&quot; rel=&quot;nofollow&quot; target=&quot;_NEW&quot;&gt;\nhttp://i.imgur.com/6r7Blqv.png&lt;/a&gt; &lt;a href=&quot;\nhttp://i.imgur.com/WRyfYFE.png&quot; rel=&quot;nofollow&quot; target=&quot;_NEW&quot;&gt;\nhttp://i.imgur.com/WRyfYFE.png&lt;/a&gt; &lt;a href=&quot;\nhttp://i.imgur.com/HdYWjhn.png&quot; rel=&quot;nofollow&quot; target=&quot;_NEW&quot;&gt;\nhttp://i.imgur.com/HdYWjhn.png&lt;/a&gt; &lt;a href=&quot;\nhttp://i.imgur.com/yX7G0nb.png&quot; rel=&quot;nofollow&quot; target=&quot;_NEW&quot;&gt;\nhttp://i.imgur.com/yX7G0nb.png&lt;/a&gt;","torrent":{"xt":"urn:btih:1e8b82947871b21fd2d9ad69e8de41e97b3b816e","amp;dn":"Captain.America.The.Winter.Soldier.2014.TS.XviD-VAiN","amp;tr":["udp%3A%2F%2Ftracker.openbittorrent.com%3A80","udp%3A%2F%2Fopen.demonii.com%3A1337","udp%3A%2F%2Ftracker.coppersurfer.tk%3A6969","udp%3A%2F%2Fexodus.desync.com%3A6969"],"infoHash":"1e8b82947871b21fd2d9ad69e8de41e97b3b816e","infoHashBuffer":{"type":"Buffer","data":[30,139,130,148,120,113,178,31,210,217,173,105,232,222,65,233,123,59,129,110]},"announce":[],"urlList":[]}}